<?xml version="1.0" standalone="no"?>
<!DOCTYPE svg PUBLIC "-//W3C//DTD SVG 20010904//EN"
 "http://www.w3.org/TR/2001/REC-SVG-20010904/DTD/svg10.dtd">
<svg version="1.0" xmlns="http://www.w3.org/2000/svg"
 width="50" height="50" viewBox="0 0 600.000000 600.000000"
 preserveAspectRatio="xMidYMid meet">

<g transform="translate(0.000000,600.000000) scale(0.100000,-0.100000)"
fill="#000000" stroke="none">
<path d="M2823 5078 c-49 -52 -93 -135 -93 -179 0 -42 -29 -218 -40 -246 -30
-74 -56 55 -35 177 6 36 5 40 -14 40 -29 0 -105 -78 -129 -132 -38 -84 -54
-155 -47 -213 10 -74 -14 -75 -45 -2 -12 28 -39 74 -59 101 -36 49 -163 156
-185 156 -7 0 -11 -35 -11 -113 0 -94 -4 -119 -22 -157 -12 -25 -35 -76 -51
-115 -65 -152 -198 -361 -225 -352 -8 2 -13 36 -15 91 l-3 88 54 57 c58 60
128 190 146 271 21 91 9 187 -33 269 -21 39 -31 39 -45 -1 -6 -17 -24 -52 -41
-77 -41 -65 -100 -251 -100 -317 0 -29 -4 -55 -9 -58 -17 -11 -29 19 -36 89
-17 170 -42 225 -162 347 -53 54 -103 98 -110 98 -10 0 -12 -26 -7 -127 5
-101 3 -141 -10 -189 -27 -102 -81 -206 -143 -275 -141 -156 -153 -183 -153
-340 0 -119 -7 -146 -50 -196 -42 -47 -55 -84 -74 -204 -10 -57 -24 -133 -33
-169 -11 -44 -17 -108 -17 -195 0 -112 4 -138 24 -190 22 -55 22 -60 6 -70
-50 -29 -50 -28 23 -84 56 -42 73 -61 80 -90 26 -99 31 -123 46 -211 9 -52 25
-138 37 -192 l22 -96 -26 -59 c-43 -96 -43 -98 29 -101 34 -2 66 -9 72 -16 12
-14 90 -225 192 -521 38 -110 77 -207 87 -216 9 -9 91 -36 182 -59 155 -39
506 -151 685 -218 112 -42 349 -144 484 -208 62 -30 122 -54 132 -54 11 0 69
25 129 55 60 30 131 63 157 74 26 10 86 35 133 56 266 114 516 202 849 298
109 32 160 52 176 68 14 14 32 56 44 104 20 74 36 129 135 465 50 167 52 170
126 170 32 0 61 4 64 9 3 5 -10 45 -29 89 l-35 80 0 240 c0 133 4 251 9 264 5
13 41 48 80 78 39 30 71 56 71 59 0 2 -7 12 -16 22 -15 16 -14 24 14 93 46
114 55 176 49 338 -4 124 -10 165 -46 308 -46 183 -79 282 -92 274 -5 -2 -11
-27 -15 -53 -14 -103 -36 -93 -54 24 -13 90 -67 263 -111 363 -35 78 -118 208
-138 217 -21 9 -26 -1 -56 -105 -46 -164 -154 -430 -174 -430 -4 0 -25 39 -47
88 -30 67 -52 100 -99 147 -59 58 -159 145 -168 145 -12 0 -16 -51 -6 -76 10
-28 5 -74 -9 -74 -9 0 -76 112 -98 165 -30 72 -44 139 -51 240 -4 80 -2 108
11 139 9 21 16 41 16 44 0 2 -24 2 -54 -1 -88 -9 -179 -66 -241 -150 -38 -52
-53 -36 -35 37 17 73 9 144 -24 200 -26 44 -89 96 -133 110 -21 7 -22 5 -16
-31 3 -21 10 -46 15 -56 10 -19 8 -206 -3 -212 -9 -6 -48 38 -111 125 -59 82
-87 129 -118 203 -12 28 -25 47 -33 45 -20 -7 -72 -113 -92 -189 -15 -60 -17
-95 -12 -221 4 -112 3 -148 -6 -145 -17 5 -84 144 -125 257 -30 84 -35 110
-39 223 -4 86 -9 127 -17 127 -7 0 -30 -19 -53 -42z m691 -163 c61 -57 77
-121 55 -211 -13 -51 -27 -61 -59 -44 -46 25 -60 67 -60 183 0 122 5 127 64
72z m-716 -112 c0 -123 96 -306 213 -406 46 -40 139 -87 170 -87 20 0 20 3 12
78 -4 42 -8 127 -8 187 0 170 18 225 51 153 8 -18 59 -103 114 -188 102 -157
190 -319 190 -349 0 -9 18 34 39 94 58 169 150 345 180 345 4 0 11 -37 13 -83
7 -101 46 -203 126 -327 64 -99 199 -240 231 -240 23 0 26 15 22 110 -2 43 -1
44 14 25 33 -40 63 -112 74 -176 10 -61 1 -187 -24 -324 -5 -27 0 -24 61 40
184 192 311 387 330 506 4 21 10 39 13 39 9 0 50 -85 68 -140 28 -90 44 -209
54 -410 6 -112 12 -206 14 -208 5 -5 82 54 113 86 13 14 28 36 34 51 l10 26
17 -35 c12 -27 16 -67 16 -175 -1 -139 -11 -207 -52 -357 -17 -59 -17 -59 -52
-56 -34 3 -36 6 -39 40 -2 28 -13 46 -48 77 -24 23 -44 46 -44 51 0 19 -46 40
-87 40 -81 0 -45 -30 39 -32 15 -1 25 -5 22 -9 -2 -4 -51 -8 -107 -7 -83 1
-97 3 -77 12 49 21 52 25 35 49 -8 12 -15 29 -15 39 0 26 -22 68 -36 68 -7 0
-21 -12 -32 -27 -20 -27 -21 -27 -69 -15 -67 19 -170 26 -178 13 -3 -6 0 -11
8 -11 8 0 30 -6 48 -14 33 -14 31 -15 -58 -14 -51 0 -90 5 -87 9 3 5 13 9 23
9 10 0 20 3 23 6 9 8 -39 144 -51 144 -3 0 -19 -13 -36 -29 l-30 -30 -49 16
c-54 18 -47 22 -99 -52 -16 -22 -24 -25 -52 -19 -18 3 -42 1 -55 -6 -16 -9
-25 -9 -36 1 -23 19 -16 29 36 51 75 31 67 51 -19 46 l-69 -4 -6 60 c-7 65
-44 136 -71 136 -9 0 -18 6 -21 14 -8 20 -78 56 -109 56 -13 0 -26 4 -29 9
-12 18 -89 52 -107 46 -10 -3 -30 1 -44 11 -14 9 -34 14 -47 11 -11 -3 -34 1
-50 9 -16 8 -37 12 -48 9 -10 -3 -54 -1 -98 4 -54 7 -106 7 -159 0 -43 -6
-104 -12 -135 -14 -31 -2 -65 -8 -77 -14 -11 -6 -29 -11 -41 -11 -19 0 -52
-14 -100 -42 -8 -4 -28 -15 -45 -24 -57 -29 -71 -39 -112 -79 -43 -44 -59 -91
-58 -172 1 -35 -1 -39 -11 -25 -16 22 -159 32 -152 11 2 -8 25 -24 51 -37 50
-24 55 -33 33 -51 -11 -9 -20 -10 -36 -1 -11 6 -35 8 -54 5 -31 -6 -35 -4 -62
39 -16 25 -32 46 -35 46 -3 0 -27 -7 -54 -14 l-48 -15 -27 30 c-16 16 -31 29
-34 29 -11 0 -36 -59 -36 -84 0 -14 -4 -28 -10 -31 -18 -11 -10 -25 23 -38 31
-13 29 -14 -58 -19 -49 -4 -94 -4 -99 0 -5 3 15 13 45 23 53 17 53 17 19 19
-19 1 -38 2 -41 2 -4 -1 -29 -3 -56 -6 -27 -3 -62 -10 -78 -16 -26 -10 -31 -8
-53 20 -13 16 -28 30 -32 30 -14 0 -40 -55 -40 -84 0 -14 -4 -28 -10 -31 -18
-11 -10 -25 23 -39 30 -14 26 -14 -73 -14 l-105 0 64 16 c48 12 59 18 45 23
-49 20 -124 -5 -124 -41 0 -11 -6 -20 -13 -20 -7 0 -29 -17 -50 -38 -33 -33
-36 -41 -30 -75 5 -33 3 -37 -15 -37 -17 0 -22 8 -26 43 -15 109 -26 258 -26
349 l0 100 53 -53 c29 -30 78 -66 109 -81 67 -33 72 -34 60 -10 -27 50 -82
410 -82 535 0 130 31 203 141 337 65 79 102 162 152 343 12 45 14 47 29 30 17
-20 50 -134 68 -233 18 -107 29 -266 30 -423 0 -174 -10 -171 127 -42 95 89
163 174 250 310 63 99 163 289 163 309 0 58 61 2 198 -181 42 -56 77 -101 78
-100 1 1 5 53 8 115 7 122 19 201 36 232 11 21 30 27 30 10 0 -10 90 -100 100
-100 3 0 11 51 18 113 13 107 30 189 54 250 6 15 12 27 13 27 2 0 3 -21 3 -47z
m-783 -104 c10 -29 17 -71 17 -94 -2 -72 -61 -195 -120 -248 -20 -18 -21 -18
-33 5 -7 13 -13 54 -13 93 1 83 26 159 78 234 20 29 36 58 36 63 0 23 20 -7
35 -53z m983 -1205 c-9 -9 -22 -14 -30 -11 -8 3 -4 8 12 15 35 15 37 14 18 -4z
m227 6 c-3 -5 -10 -10 -16 -10 -5 0 -9 5 -9 10 0 6 7 10 16 10 8 0 12 -4 9
-10z m-445 -30 c0 -5 -7 -10 -16 -10 -8 0 -12 5 -9 10 3 6 10 10 16 10 5 0 9
-4 9 -10z m-254 -15 c11 -8 14 -15 7 -15 -7 0 -13 -7 -13 -15 0 -27 -37 -37
-66 -18 l-26 17 28 23 c34 27 44 28 70 8z m1145 -37 c-6 -16 -22 -28 -49 -36
-22 -7 -47 -23 -56 -37 -10 -15 -30 -27 -53 -31 -21 -4 -47 -11 -58 -17 -11
-6 -36 -12 -55 -14 l-35 -3 25 20 c14 11 37 28 53 37 15 10 27 21 27 25 0 12
56 38 82 38 23 0 83 39 62 40 -6 0 -17 -7 -24 -15 -7 -8 -17 -15 -23 -15 -29
0 36 39 69 42 45 3 48 0 35 -34z m-214 9 c-6 -20 -27 -19 -27 2 0 14 5 19 15
14 9 -3 14 -10 12 -16z m-257 -7 c0 -5 -4 -10 -10 -10 -5 0 -10 5 -10 10 0 6
5 10 10 10 6 0 10 -4 10 -10z m209 -3 c9 -11 4 -14 -24 -15 -39 -2 -48 14 -12
21 12 2 23 5 23 6 1 0 7 -5 13 -12z m-746 -31 c3 -8 -5 -11 -24 -8 -20 3 -29
10 -29 23 0 16 3 17 24 7 14 -6 27 -16 29 -22z m172 24 c-3 -5 -10 -10 -16
-10 -5 0 -9 5 -9 10 0 6 7 10 16 10 8 0 12 -4 9 -10z m-125 -10 c0 -5 -5 -10
-11 -10 -5 0 -7 5 -4 10 3 6 8 10 11 10 2 0 4 -4 4 -10z m170 -4 c0 -8 -31
-36 -41 -36 -14 0 -11 28 4 33 16 7 37 8 37 3z m220 -6 c0 -5 -4 -10 -10 -10
-5 0 -10 5 -10 10 0 6 5 10 10 10 6 0 10 -4 10 -10z m87 -1 c-14 -8 -22 -8
-30 0 -8 8 -3 11 19 11 25 -1 27 -2 11 -11z m-157 -8 c0 -14 -18 -23 -31 -15
-8 4 -7 9 2 15 18 11 29 11 29 0z m260 -1 c0 -5 -4 -10 -9 -10 -5 0 -18 -3
-28 -6 -16 -5 -16 -4 1 10 23 18 36 20 36 6z m-731 -17 c-12 -15 -12 -16 3
-10 18 6 68 -26 57 -37 -10 -10 -67 14 -74 31 -3 9 0 20 7 25 20 12 22 10 7
-9z m-309 -3 c8 -5 11 -10 5 -10 -5 0 -17 5 -25 10 -8 5 -10 10 -5 10 6 0 17
-5 25 -10z m400 1 c0 -12 -20 -25 -27 -18 -7 7 6 27 18 27 5 0 9 -4 9 -9z
m1145 -1 c-3 -5 -12 -10 -18 -10 -7 0 -6 4 3 10 19 12 23 12 15 0z m-1012 -15
c6 -6 10 -6 14 2 3 10 8 9 19 -2 9 -8 12 -19 9 -25 -3 -5 1 -10 9 -10 9 0 16
6 16 14 0 7 9 16 20 19 29 7 25 0 -22 -44 -44 -40 -85 -49 -80 -18 3 22 -24
31 -38 13 -14 -15 -60 -20 -60 -5 0 14 72 68 89 67 9 -1 20 -5 24 -11z m555 0
c4 -4 -3 -5 -15 -2 -13 3 -23 1 -23 -4 0 -5 5 -9 11 -9 17 0 -4 -22 -52 -55
-32 -23 -52 -29 -105 -31 l-65 -3 45 41 c35 32 54 41 81 41 19 0 38 -3 42 -6
13 -14 25 -7 13 8 -6 8 -9 19 -5 24 7 12 62 8 73 -4z m-358 -5 c0 -5 -5 -10
-11 -10 -5 0 -7 5 -4 10 3 6 8 10 11 10 2 0 4 -4 4 -10z m93 -28 c15 -8 -56
-73 -73 -66 -8 3 -41 6 -72 5 -32 -1 -58 1 -58 4 0 11 65 63 70 55 3 -4 21 -2
40 5 32 11 71 10 93 -3z m-513 -22 c0 -5 -4 -10 -10 -10 -5 0 -10 5 -10 10 0
6 5 10 10 10 6 0 10 -4 10 -10z m-207 -12 c15 -11 10 -13 -35 -15 -48 -2 -51
-1 -34 12 24 18 47 19 69 3z m1393 -3 c17 -13 15 -14 -33 -12 -39 1 -49 5 -41
15 14 16 50 15 74 -3z m216 -27 c-8 -8 -9 -4 -5 13 4 13 8 18 11 10 2 -7 -1
-18 -6 -23z m-1895 -25 c-3 -10 -5 -2 -5 17 0 19 2 27 5 18 2 -10 2 -26 0 -35z
m633 27 c3 0 -2 -5 -12 -10 -17 -11 -48 -4 -48 10 0 7 27 7 60 0z m785 -10
c-3 -5 -10 -10 -16 -10 -5 0 -9 5 -9 10 0 6 7 10 16 10 8 0 12 -4 9 -10z
m-610 -34 c12 -9 1 -11 -50 -12 -51 0 -62 2 -54 12 13 16 83 16 104 0z m-474
-18 l24 -15 -30 -15 c-37 -19 -125 -41 -133 -33 -3 3 0 5 6 5 7 0 15 18 18 41
l7 40 42 -3 c24 -2 53 -11 66 -20z m813 8 c-3 -8 -12 -12 -20 -9 -17 6 -9 23
11 23 8 0 12 -6 9 -14z m111 4 c-3 -5 -10 -10 -16 -10 -5 0 -9 5 -9 10 0 6 7
10 16 10 8 0 12 -4 9 -10z m417 -31 l4 -41 -44 7 c-55 8 -92 24 -92 40 0 12
58 32 101 34 24 1 27 -3 31 -40z m-702 21 c0 -5 -7 -10 -16 -10 -8 0 -12 5 -9
10 3 6 10 10 16 10 5 0 9 -4 9 -10z m120 -16 c0 -2 -15 -4 -32 -3 -27 0 -29 2
-13 8 18 8 45 4 45 -5z m-1473 -41 c-3 -10 -5 -2 -5 17 0 19 2 27 5 18 2 -10
2 -26 0 -35z m2654 16 c-5 -13 -10 -19 -10 -12 -1 15 10 45 15 40 3 -2 0 -15
-5 -28z m-1426 11 c4 -6 -6 -10 -22 -10 -22 0 -25 2 -13 10 19 12 27 12 35 0z
m1204 -50 c15 -23 15 -23 -9 -17 -14 3 -71 9 -128 13 -111 7 -128 20 -52 39
64 16 168 -3 189 -35z m-1982 18 c12 -12 0 -16 -84 -27 -54 -7 -113 -15 -130
-18 -63 -10 -26 43 38 57 59 12 158 5 176 -12z m1149 -53 c86 -25 144 -100
144 -185 0 -93 -35 -162 -107 -210 l-22 -15 30 -100 c16 -55 41 -121 54 -146
14 -26 25 -48 25 -51 0 -2 -12 -3 -27 -2 -16 1 -52 3 -80 3 -49 1 -53 3 -53
24 0 46 -74 267 -90 267 -11 0 -22 -180 -14 -239 l7 -51 -83 0 c-81 0 -82 0
-74 23 5 12 9 162 9 332 0 281 -2 314 -18 338 l-17 27 133 0 c88 0 150 -5 183
-15z m1153 4 c42 -15 39 -29 -7 -29 -45 0 -56 8 -41 27 14 16 9 15 48 2z
m-2789 -14 c7 -8 9 -15 4 -16 -5 0 -28 -2 -51 -5 -34 -5 -43 -3 -43 9 0 28 69
37 90 12z m1105 -4 c47 -22 89 -64 104 -104 18 -48 13 -146 -9 -193 l-21 -42
21 -38 c27 -51 27 -152 1 -210 -38 -83 -113 -114 -276 -114 l-82 0 -12 143
c-7 78 -18 228 -26 334 -8 106 -18 201 -24 212 -10 18 -8 20 26 24 21 2 88 4
148 5 88 1 118 -2 150 -17z m1072 -11 c22 0 23 -3 21 -67 -4 -114 31 -569 49
-632 6 -23 5 -24 -33 -18 -21 4 -56 7 -76 7 l-37 0 6 50 6 50 -42 0 c-56 0
-56 0 -56 -47 l0 -42 -75 6 c-41 3 -76 7 -78 8 -1 1 5 19 14 41 25 60 154 578
154 620 l0 37 61 -7 c34 -3 73 -6 86 -6z m-1782 -62 c8 -53 153 -523 188 -610
6 -15 9 -29 6 -32 -2 -2 -34 -7 -70 -10 l-67 -7 -7 46 c-6 46 -7 47 -37 41
-17 -3 -37 -6 -46 -6 -12 0 -14 -9 -9 -49 l6 -50 -57 -6 c-31 -4 -65 -9 -75
-12 -16 -4 -17 0 -10 39 4 24 8 186 8 360 l0 318 35 6 c19 3 40 7 45 9 6 2 26
4 47 4 35 1 36 0 43 -41z m2265 -9 c90 -41 120 -91 120 -204 0 -68 -2 -76 -17
-71 -10 2 -51 10 -90 16 -75 12 -84 18 -57 40 10 9 14 26 12 49 -2 28 -9 39
-31 49 -35 17 -83 1 -93 -30 -12 -38 8 -72 90 -152 94 -93 117 -135 117 -211
0 -122 -80 -194 -213 -189 -61 2 -116 31 -151 81 -25 34 -29 50 -30 116 -1 42
1 77 5 77 4 0 41 -5 82 -11 74 -11 75 -12 61 -32 -23 -33 -19 -83 7 -101 51
-36 108 -7 108 54 0 41 -16 62 -106 141 -129 113 -157 235 -77 330 57 67 173
89 263 48z m-2590 2 c0 -5 -7 -26 -16 -47 -12 -28 -15 -56 -11 -99 11 -113 67
-470 81 -512 13 -38 13 -43 -2 -47 -43 -11 -95 -17 -112 -11 -11 3 -56 66
-102 143 -48 79 -84 129 -86 119 -4 -22 25 -180 44 -240 9 -27 14 -50 11 -53
-2 -2 -39 -11 -82 -18 l-77 -14 5 51 c5 35 -1 80 -19 156 -14 58 -41 176 -60
261 -19 85 -44 170 -55 188 -11 19 -18 37 -15 39 12 12 131 30 150 23 29 -11
43 -29 116 -150 86 -143 90 -146 75 -63 -7 37 -16 85 -19 105 -4 20 -22 60
-41 88 -39 58 -47 51 90 74 100 17 125 18 125 7z m3036 -71 c1 0 -3 -20 -8
-45 -6 -26 -8 -181 -6 -358 l3 -313 -70 11 c-53 8 -69 14 -67 25 18 73 16 78
-22 85 -54 11 -66 2 -66 -45 0 -40 -1 -41 -27 -36 -16 3 -49 8 -75 12 -27 3
-48 8 -48 9 0 2 9 25 21 52 28 66 186 549 193 594 l6 36 83 -13 c45 -8 83 -14
83 -14z m-1986 -862 c0 -13 -14 -68 -31 -123 -17 -55 -33 -108 -36 -117 -4
-15 1 -18 26 -18 25 0 34 -6 41 -26 6 -14 10 -30 10 -35 0 -5 -43 -9 -95 -9
-114 0 -110 -10 -60 154 19 64 35 118 35 120 0 3 -12 6 -27 8 -23 2 -29 8 -31
36 l-3 32 85 0 c83 0 86 -1 86 -22z m190 -13 c0 -32 -2 -35 -31 -35 -28 0 -30
-2 -27 -32 2 -28 8 -34 31 -36 25 -3 28 -7 25 -35 -2 -27 -8 -33 -30 -35 -25
-3 -28 -8 -28 -38 0 -32 2 -34 35 -34 33 0 35 -2 35 -35 l0 -35 -82 0 -83 0 0
175 0 175 78 0 77 0 0 -35z m125 17 c34 -2 77 0 97 6 45 12 48 6 35 -63 -5
-27 -7 -189 -5 -358 l3 -309 -72 4 c-39 2 -75 6 -79 10 -3 4 -1 27 5 52 7 27
11 139 11 282 l0 237 -45 -5 -45 -6 0 85 c0 77 2 84 18 78 9 -5 44 -10 77 -13z
m481 -1 c105 -48 128 -232 39 -310 l-35 -30 29 -15 c17 -9 38 -35 51 -62 19
-38 22 -57 18 -115 -9 -125 -77 -188 -203 -189 -109 0 -196 68 -211 166 l-6
41 48 12 c27 7 57 14 67 17 12 4 17 0 17 -14 0 -11 9 -31 21 -46 15 -20 29
-26 57 -26 20 0 42 4 49 8 19 12 34 63 28 94 -9 41 -40 58 -107 58 l-58 0 1
33 c0 17 4 50 7 72 l7 40 54 0 c44 1 57 5 72 24 39 48 13 121 -43 121 -33 0
-68 -24 -68 -46 0 -7 -4 -16 -10 -19 -15 -9 -130 16 -130 29 0 6 11 34 24 61
39 84 85 113 181 114 38 0 75 -6 101 -18z m-797 -385 c20 -23 25 -108 8 -131
-12 -16 -13 -23 -2 -40 7 -11 15 -53 18 -92 l6 -73 -45 0 -44 0 0 74 c0 101
-18 108 -22 9 l-3 -78 -45 -3 -45 -3 0 176 0 175 81 0 c58 0 85 -4 93 -14z
m232 -5 c23 -18 24 -24 24 -155 0 -160 -8 -175 -92 -183 -42 -4 -53 -1 -80 21
-37 31 -45 75 -36 200 8 117 23 136 103 136 42 0 64 -5 81 -19z m261 -632
c-18 -16 -143 -79 -156 -79 -9 0 -30 6 -48 14 -18 8 -49 21 -70 30 -20 9 -40
16 -45 16 -4 0 -15 6 -24 13 -13 10 21 12 167 12 101 0 180 -3 176 -6z"/>
<path d="M3500 3358 c-24 -15 -30 -23 -20 -25 21 -5 90 24 90 37 0 17 -33 11
-70 -12z"/>
<path d="M3045 3300 c-16 -7 -17 -9 -3 -9 9 -1 20 4 23 9 7 11 7 11 -20 0z"/>
<path d="M3156 2929 c-3 -17 -6 -56 -6 -85 l0 -54 48 0 c65 0 92 25 92 85 0
60 -25 85 -84 85 -41 0 -44 -2 -50 -31z"/>
<path d="M3320 2873 c0 -40 -5 -58 -24 -80 -21 -24 -34 -29 -93 -34 l-68 -6
68 -1 c47 -2 75 3 92 14 38 25 58 108 35 144 -7 11 -10 0 -10 -37z"/>
<path d="M2622 2953 c-29 -4 -33 -7 -28 -26 3 -12 6 -51 6 -86 l0 -63 48 7
c65 9 82 27 82 85 0 67 -33 92 -108 83z"/>
<path d="M2755 2869 c0 -66 -2 -73 -27 -92 -14 -10 -52 -23 -85 -28 l-58 -8
69 3 c63 2 71 5 97 34 23 26 29 42 29 80 0 27 -6 56 -12 65 -11 15 -13 6 -13
-54z"/>
<path d="M2610 2596 c0 -29 3 -67 6 -84 6 -29 8 -30 48 -25 59 8 76 27 76 83
0 61 -20 80 -83 80 l-47 0 0 -54z"/>
<path d="M2771 2604 c0 -11 3 -14 6 -6 3 7 2 16 -1 19 -3 4 -6 -2 -5 -13z"/>
<path d="M2766 2516 c-18 -43 -27 -48 -106 -63 l-65 -12 68 2 c57 3 71 7 91
27 21 23 44 80 31 80 -2 0 -11 -15 -19 -34z"/>
<path d="M3750 2776 c0 -15 5 -60 10 -99 6 -40 12 -86 14 -104 l5 -32 -62 -4
-62 -3 69 -2 69 -2 -6 38 c-4 20 -11 80 -18 132 -11 95 -19 127 -19 76z"/>
<path d="M3727 2770 c-8 -21 -57 -194 -57 -201 0 -4 20 -9 45 -11 52 -4 49
-15 31 127 -7 55 -16 93 -19 85z"/>
<path d="M2046 2638 c23 -68 42 -123 41 -125 -1 -1 -29 -6 -62 -12 l-60 -10
65 5 c36 3 67 7 69 9 5 6 -82 255 -90 255 -3 0 13 -55 37 -122z"/>
<path d="M1985 2653 c-3 -49 -9 -98 -12 -110 -5 -21 -2 -23 41 -23 34 0 46 4
46 15 0 17 -59 205 -64 205 -2 0 -7 -39 -11 -87z"/>
<path d="M4321 2790 c0 -40 2 -42 11 -22 8 16 8 28 0 45 -9 19 -11 17 -11 -23z"/>
<path d="M4002 2458 l1 -53 6 45 c6 42 8 45 34 43 15 -1 27 2 27 8 0 5 -16 9
-35 9 l-35 0 2 -52z"/>
<path d="M1291 2881 c-12 -8 -13 -14 -2 -37 18 -40 111 -477 118 -556 3 -37
10 -65 14 -62 13 8 11 57 -6 127 -8 34 -33 149 -55 255 -22 106 -46 208 -54
226 l-14 34 36 10 c36 10 36 10 7 11 -16 0 -36 -3 -44 -8z"/>
<path d="M1427 2688 c144 -244 237 -397 240 -394 5 5 -246 426 -254 426 -3 0
4 -15 14 -32z"/>
<path d="M4654 2543 c3 -148 8 -139 -71 -124 -24 5 -43 5 -43 1 0 -8 119 -24
127 -17 2 3 0 65 -6 138 l-9 134 2 -132z"/>
<path d="M4590 2554 c-23 -58 -40 -107 -38 -109 1 -1 22 -6 46 -10 l42 -7 0
116 c0 64 -2 116 -4 116 -2 0 -23 -48 -46 -106z"/>
<path d="M2690 1590 c0 -25 4 -39 10 -35 6 3 10 19 10 35 0 16 -4 32 -10 35
-6 4 -10 -10 -10 -35z"/>
<path d="M2910 1511 c0 -74 4 -121 10 -121 9 0 12 40 14 202 1 17 -5 33 -11
36 -10 3 -13 -25 -13 -117z"/>
</g>
</svg>
